<?xml version="1.0" encoding="utf-8"?><svg xmlns="http://www.w3.org/2000/svg" xmlns:xlink="http://www.w3.org/1999/xlink" width="1366" height="630" preserveAspectRatio="xMidYMid" viewBox="0 0 1366 630" style="z-index:1;margin-right:-2px;display:block;background-repeat-y:initial;background-repeat-x:initial;background-color:rgb(241, 242, 243);animation-play-state:paused" ><g transform="translate(683,315) scale(1,1) translate(-683,-315)" style="transform:matrix(1, 0, 0, 1, 0, 0);animation-play-state:paused" ><g id="bk-0.9760291236517593" style="animation-play-state:paused" ><path d="M 635 264 L 519 275 L 613 340 Z" stroke="#34802d" fill="#34802d" style="animation-play-state:paused" ></path>
<path d="M 519 275 L 515 373 L 613 340 Z" stroke="#307e2c" fill="#307e2c" style="animation-play-state:paused" ></path>
<path d="M 635 264 L 635 176 L 519 275 Z" stroke="#418830" fill="#418830" style="animation-play-state:paused" ></path>
<path d="M 725 348 L 723 270 L 635 264 Z" stroke="#257829" fill="#257829" style="animation-play-state:paused" ></path>
<path d="M 635 264 L 714 163 L 635 176 Z" stroke="#448a31" fill="#448a31" style="animation-play-state:paused" ></path>
<path d="M 624 447 L 725 348 L 613 340 Z" stroke="#247125" fill="#247125" style="animation-play-state:paused" ></path>
<path d="M 613 340 L 725 348 L 635 264 Z" stroke="#237729" fill="#237729" style="animation-play-state:paused" ></path>
<path d="M 513 155 L 409 256 L 519 275 Z" stroke="#529334" fill="#529334" style="animation-play-state:paused" ></path>
<path d="M 519 275 L 437 374 L 515 373 Z" stroke="#35812d" fill="#35812d" style="animation-play-state:paused" ></path>
<path d="M 635 176 L 513 155 L 519 275 Z" stroke="#509134" fill="#509134" style="animation-play-state:paused" ></path>
<path d="M 409 256 L 437 374 L 519 275 Z" stroke="#438a31" fill="#438a31" style="animation-play-state:paused" ></path>
<path d="M 437 374 L 517 454 L 515 373 Z" stroke="#27792a" fill="#27792a" style="animation-play-state:paused" ></path>
<path d="M 515 373 L 624 447 L 613 340 Z" stroke="#247427" fill="#247427" style="animation-play-state:paused" ></path>
<path d="M 517 454 L 624 447 L 515 373 Z" stroke="#247226" fill="#247226" style="animation-play-state:paused" ></path>
<path d="M 723 270 L 714 163 L 635 264 Z" stroke="#38822e" fill="#38822e" style="animation-play-state:paused" ></path>
<path d="M 635 176 L 628 58 L 513 155 Z" stroke="#5f9b38" fill="#5f9b38" style="animation-play-state:paused" ></path>
<path d="M 624 447 L 734 460 L 725 348 Z" stroke="#256a20" fill="#256a20" style="animation-play-state:paused" ></path>
<path d="M 725 348 L 821 356 L 723 270 Z" stroke="#247125" fill="#247125" style="animation-play-state:paused" ></path>
<path d="M 513 155 L 404 149 L 409 256 Z" stroke="#619c39" fill="#619c39" style="animation-play-state:paused" ></path>
<path d="M 327 472 L 411 475 L 437 374 Z" stroke="#2f7d2c" fill="#2f7d2c" style="animation-play-state:paused" ></path>
<path d="M 437 374 L 411 475 L 517 454 Z" stroke="#257829" fill="#257829" style="animation-play-state:paused" ></path>
<path d="M 517 454 L 598 543 L 624 447 Z" stroke="#256c21" fill="#256c21" style="animation-play-state:paused" ></path>
<path d="M 316 278 L 437 374 L 409 256 Z" stroke="#4c8f33" fill="#4c8f33" style="animation-play-state:paused" ></path>
<path d="M 722 58 L 628 58 L 635 176 Z" stroke="#619c39" fill="#619c39" style="animation-play-state:paused" ></path>
<path d="M 513 155 L 415 76 L 404 149 Z" stroke="#70a63d" fill="#70a63d" style="animation-play-state:paused" ></path>
<path d="M 804 445 L 821 356 L 725 348 Z" stroke="#25691f" fill="#25691f" style="animation-play-state:paused" ></path>
<path d="M 723 270 L 831 272 L 714 163 Z" stroke="#2f7e2c" fill="#2f7e2c" style="animation-play-state:paused" ></path>
<path d="M 821 356 L 831 272 L 723 270 Z" stroke="#247225" fill="#247225" style="animation-play-state:paused" ></path>
<path d="M 714 163 L 722 58 L 635 176 Z" stroke="#549435" fill="#549435" style="animation-play-state:paused" ></path>
<path d="M 404 149 L 316 278 L 409 256 Z" stroke="#5f9b38" fill="#5f9b38" style="animation-play-state:paused" ></path>
<path d="M 509 557 L 598 543 L 517 454 Z" stroke="#256c21" fill="#256c21" style="animation-play-state:paused" ></path>
<path d="M 624 447 L 598 543 L 734 460 Z" stroke="#25671e" fill="#25671e" style="animation-play-state:paused" ></path>
<path d="M 628 58 L 493 40 L 513 155 Z" stroke="#71a63d" fill="#71a63d" style="animation-play-state:paused" ></path>
<path d="M 411 475 L 509 557 L 517 454 Z" stroke="#247125" fill="#247125" style="animation-play-state:paused" ></path>
<path d="M 831 272 L 811 151 L 714 163 Z" stroke="#38832e" fill="#38832e" style="animation-play-state:paused" ></path>
<path d="M 734 460 L 804 445 L 725 348 Z" stroke="#25671e" fill="#25671e" style="animation-play-state:paused" ></path>
<path d="M 836 565 L 804 445 L 734 460 Z" stroke="#255e18" fill="#255e18" style="animation-play-state:paused" ></path>
<path d="M 811 151 L 722 58 L 714 163 Z" stroke="#519234" fill="#519234" style="animation-play-state:paused" ></path>
<path d="M 628 58 L 531 -47 L 493 40 Z" stroke="#84b243" fill="#84b243" style="animation-play-state:paused" ></path>
<path d="M 316 278 L 302 352 L 437 374 Z" stroke="#4a8e32" fill="#4a8e32" style="animation-play-state:paused" ></path>
<path d="M 411 475 L 423 553 L 509 557 Z" stroke="#247125" fill="#247125" style="animation-play-state:paused" ></path>
<path d="M 493 40 L 415 76 L 513 155 Z" stroke="#77aa3f" fill="#77aa3f" style="animation-play-state:paused" ></path>
<path d="M 404 149 L 320 165 L 316 278 Z" stroke="#6aa23b" fill="#6aa23b" style="animation-play-state:paused" ></path>
<path d="M 313 61 L 320 165 L 404 149 Z" stroke="#7cad41" fill="#7cad41" style="animation-play-state:paused" ></path>
<path d="M 316 278 L 240 274 L 302 352 Z" stroke="#5a9837" fill="#5a9837" style="animation-play-state:paused" ></path>
<path d="M 302 352 L 327 472 L 437 374 Z" stroke="#3d852f" fill="#3d852f" style="animation-play-state:paused" ></path>
<path d="M 327 472 L 423 553 L 411 475 Z" stroke="#247729" fill="#247729" style="animation-play-state:paused" ></path>
<path d="M 710 646 L 739 585 L 598 543 Z" stroke="#255d17" fill="#255d17" style="animation-play-state:paused" ></path>
<path d="M 510 654 L 598 543 L 509 557 Z" stroke="#25671e" fill="#25671e" style="animation-play-state:paused" ></path>
<path d="M 598 543 L 739 585 L 734 460 Z" stroke="#25611a" fill="#25611a" style="animation-play-state:paused" ></path>
<path d="M 821 356 L 920 339 L 831 272 Z" stroke="#256c21" fill="#256c21" style="animation-play-state:paused" ></path>
<path d="M 831 272 L 919 155 L 811 151 Z" stroke="#327f2c" fill="#327f2c" style="animation-play-state:paused" ></path>
<path d="M 925 467 L 920 339 L 821 356 Z" stroke="#25631b" fill="#25631b" style="animation-play-state:paused" ></path>
<path d="M 925 467 L 821 356 L 804 445 Z" stroke="#25611a" fill="#25611a" style="animation-play-state:paused" ></path>
<path d="M 616 -30 L 531 -47 L 628 58 Z" stroke="#87b444" fill="#87b444" style="animation-play-state:paused" ></path>
<path d="M 493 40 L 410 -48 L 415 76 Z" stroke="#8eb846" fill="#8eb846" style="animation-play-state:paused" ></path>
<path d="M 811 151 L 820 59 L 722 58 Z" stroke="#589636" fill="#589636" style="animation-play-state:paused" ></path>
<path d="M 713 -39 L 616 -30 L 628 58 Z" stroke="#80b042" fill="#80b042" style="animation-play-state:paused" ></path>
<path d="M 919 155 L 820 59 L 811 151 Z" stroke="#488d32" fill="#488d32" style="animation-play-state:paused" ></path>
<path d="M 713 -39 L 628 58 L 722 58 Z" stroke="#74a83e" fill="#74a83e" style="animation-play-state:paused" ></path>
<path d="M 320 165 L 240 274 L 316 278 Z" stroke="#67a03a" fill="#67a03a" style="animation-play-state:paused" ></path>
<path d="M 302 352 L 228 361 L 327 472 Z" stroke="#488c32" fill="#488c32" style="animation-play-state:paused" ></path>
<path d="M 415 76 L 313 61 L 404 149 Z" stroke="#80b042" fill="#80b042" style="animation-play-state:paused" ></path>
<path d="M 320 165 L 232 165 L 240 274 Z" stroke="#74a83e" fill="#74a83e" style="animation-play-state:paused" ></path>
<path d="M 410 -48 L 313 61 L 415 76 Z" stroke="#92bb48" fill="#92bb48" style="animation-play-state:paused" ></path>
<path d="M 240 274 L 228 361 L 302 352 Z" stroke="#599736" fill="#599736" style="animation-play-state:paused" ></path>
<path d="M 327 472 L 320 556 L 423 553 Z" stroke="#257829" fill="#257829" style="animation-play-state:paused" ></path>
<path d="M 920 339 L 939 285 L 831 272 Z" stroke="#256d22" fill="#256d22" style="animation-play-state:paused" ></path>
<path d="M 423 553 L 510 654 L 509 557 Z" stroke="#256b21" fill="#256b21" style="animation-play-state:paused" ></path>
<path d="M 811 669 L 836 565 L 739 585 Z" stroke="#245512" fill="#245512" style="animation-play-state:paused" ></path>
<path d="M 739 585 L 836 565 L 734 460 Z" stroke="#255b16" fill="#255b16" style="animation-play-state:paused" ></path>
<path d="M 939 285 L 919 155 L 831 272 Z" stroke="#237528" fill="#237528" style="animation-play-state:paused" ></path>
<path d="M 511 -132 L 410 -48 L 531 -47 Z" stroke="#a7c650" fill="#a7c650" style="animation-play-state:paused" ></path>
<path d="M 531 -47 L 410 -48 L 493 40 Z" stroke="#96bd49" fill="#96bd49" style="animation-play-state:paused" ></path>
<path d="M 219 583 L 320 556 L 327 472 Z" stroke="#307e2c" fill="#307e2c" style="animation-play-state:paused" ></path>
<path d="M 423 553 L 425 658 L 510 654 Z" stroke="#256c21" fill="#256c21" style="animation-play-state:paused" ></path>
<path d="M 900 551 L 925 467 L 804 445 Z" stroke="#255915" fill="#255915" style="animation-play-state:paused" ></path>
<path d="M 920 339 L 1010 357 L 939 285 Z" stroke="#25671e" fill="#25671e" style="animation-play-state:paused" ></path>
<path d="M 840 -32 L 713 -39 L 722 58 Z" stroke="#77aa3f" fill="#77aa3f" style="animation-play-state:paused" ></path>
<path d="M 417 -165 L 297 -65 L 410 -48 Z" stroke="#beca62" fill="#beca62" style="animation-play-state:paused" ></path>
<path d="M 626 681 L 710 646 L 598 543 Z" stroke="#255e18" fill="#255e18" style="animation-play-state:paused" ></path>
<path d="M 218 58 L 232 165 L 320 165 Z" stroke="#86b344" fill="#86b344" style="animation-play-state:paused" ></path>
<path d="M 132 366 L 215 460 L 228 361 Z" stroke="#569535" fill="#569535" style="animation-play-state:paused" ></path>
<path d="M 510 654 L 626 681 L 598 543 Z" stroke="#25621b" fill="#25621b" style="animation-play-state:paused" ></path>
<path d="M 228 361 L 215 460 L 327 472 Z" stroke="#468b31" fill="#468b31" style="animation-play-state:paused" ></path>
<path d="M 132 366 L 228 361 L 240 274 Z" stroke="#609c38" fill="#609c38" style="animation-play-state:paused" ></path>
<path d="M 307 652 L 425 658 L 423 553 Z" stroke="#247024" fill="#247024" style="animation-play-state:paused" ></path>
<path d="M 510 654 L 525 746 L 626 681 Z" stroke="#25611a" fill="#25611a" style="animation-play-state:paused" ></path>
<path d="M 916 659 L 900 551 L 836 565 Z" stroke="#23500f" fill="#23500f" style="animation-play-state:paused" ></path>
<path d="M 836 565 L 900 551 L 804 445 Z" stroke="#255814" fill="#255814" style="animation-play-state:paused" ></path>
<path d="M 925 467 L 1010 357 L 920 339 Z" stroke="#256019" fill="#256019" style="animation-play-state:paused" ></path>
<path d="M 907 54 L 840 -32 L 820 59 Z" stroke="#659f3a" fill="#659f3a" style="animation-play-state:paused" ></path>
<path d="M 820 59 L 840 -32 L 722 58 Z" stroke="#6aa23b" fill="#6aa23b" style="animation-play-state:paused" ></path>
<path d="M 313 61 L 218 58 L 320 165 Z" stroke="#8cb746" fill="#8cb746" style="animation-play-state:paused" ></path>
<path d="M 124 257 L 132 366 L 240 274 Z" stroke="#6ca33c" fill="#6ca33c" style="animation-play-state:paused" ></path>
<path d="M 222 -42 L 218 58 L 313 61 Z" stroke="#a3c54d" fill="#a3c54d" style="animation-play-state:paused" ></path>
<path d="M 919 155 L 907 54 L 820 59 Z" stroke="#4f9134" fill="#4f9134" style="animation-play-state:paused" ></path>
<path d="M 1039 75 L 907 54 L 919 155 Z" stroke="#488c32" fill="#488c32" style="animation-play-state:paused" ></path>
<path d="M 1026 454 L 1010 357 L 925 467 Z" stroke="#255a15" fill="#255a15" style="animation-play-state:paused" ></path>
<path d="M 939 285 L 1016 250 L 919 155 Z" stroke="#247326" fill="#247326" style="animation-play-state:paused" ></path>
<path d="M 1010 357 L 1016 250 L 939 285 Z" stroke="#25691f" fill="#25691f" style="animation-play-state:paused" ></path>
<path d="M 710 646 L 811 669 L 739 585 Z" stroke="#245613" fill="#245613" style="animation-play-state:paused" ></path>
<path d="M 721 746 L 811 669 L 710 646 Z" stroke="#245412" fill="#245412" style="animation-play-state:paused" ></path>
<path d="M 215 460 L 219 583 L 327 472 Z" stroke="#3a842e" fill="#3a842e" style="animation-play-state:paused" ></path>
<path d="M 320 556 L 307 652 L 423 553 Z" stroke="#247527" fill="#247527" style="animation-play-state:paused" ></path>
<path d="M 621 -137 L 531 -47 L 616 -30 Z" stroke="#9bc04b" fill="#9bc04b" style="animation-play-state:paused" ></path>
<path d="M 410 -48 L 297 -65 L 313 61 Z" stroke="#a4c64e" fill="#a4c64e" style="animation-play-state:paused" ></path>
<path d="M 219 583 L 307 652 L 320 556 Z" stroke="#297a2a" fill="#297a2a" style="animation-play-state:paused" ></path>
<path d="M 717 -134 L 621 -137 L 713 -39 Z" stroke="#9dc14b" fill="#9dc14b" style="animation-play-state:paused" ></path>
<path d="M 713 -39 L 621 -137 L 616 -30 Z" stroke="#95bc48" fill="#95bc48" style="animation-play-state:paused" ></path>
<path d="M 621 -137 L 511 -132 L 531 -47 Z" stroke="#abc752" fill="#abc752" style="animation-play-state:paused" ></path>
<path d="M 124 257 L 240 274 L 232 165 Z" stroke="#75a93f" fill="#75a93f" style="animation-play-state:paused" ></path>
<path d="M 215 460 L 108 547 L 219 583 Z" stroke="#438930" fill="#438930" style="animation-play-state:paused" ></path>
<path d="M 800 -133 L 717 -134 L 713 -39 Z" stroke="#97be49" fill="#97be49" style="animation-play-state:paused" ></path>
<path d="M 406 743 L 525 746 L 425 658 Z" stroke="#25681f" fill="#25681f" style="animation-play-state:paused" ></path>
<path d="M 425 658 L 525 746 L 510 654 Z" stroke="#25671e" fill="#25671e" style="animation-play-state:paused" ></path>
<path d="M 626 681 L 721 746 L 710 646 Z" stroke="#255814" fill="#255814" style="animation-play-state:paused" ></path>
<path d="M 109 143 L 232 165 L 137 71 Z" stroke="#94bc48" fill="#94bc48" style="animation-play-state:paused" ></path>
<path d="M 109 143 L 124 257 L 232 165 Z" stroke="#85b344" fill="#85b344" style="animation-play-state:paused" ></path>
<path d="M 1042 564 L 1026 454 L 900 551 Z" stroke="#23500f" fill="#23500f" style="animation-play-state:paused" ></path>
<path d="M 900 551 L 1026 454 L 925 467 Z" stroke="#245512" fill="#245512" style="animation-play-state:paused" ></path>
<path d="M 1112 257 L 1046 168 L 1016 250 Z" stroke="#247024" fill="#247024" style="animation-play-state:paused" ></path>
<path d="M 1112 257 L 1016 250 L 1010 357 Z" stroke="#25681f" fill="#25681f" style="animation-play-state:paused" ></path>
<path d="M 1016 250 L 1046 168 L 919 155 Z" stroke="#247729" fill="#247729" style="animation-play-state:paused" ></path>
<path d="M 907 54 L 916 -32 L 840 -32 Z" stroke="#6ca33c" fill="#6ca33c" style="animation-play-state:paused" ></path>
<path d="M 525 746 L 627 772 L 626 681 Z" stroke="#255e18" fill="#255e18" style="animation-play-state:paused" ></path>
<path d="M 1016 -44 L 916 -32 L 907 54 Z" stroke="#69a13b" fill="#69a13b" style="animation-play-state:paused" ></path>
<path d="M 840 -32 L 800 -133 L 713 -39 Z" stroke="#89b545" fill="#89b545" style="animation-play-state:paused" ></path>
<path d="M 627 772 L 721 746 L 626 681 Z" stroke="#255915" fill="#255915" style="animation-play-state:paused" ></path>
<path d="M 811 669 L 916 659 L 836 565 Z" stroke="#23500f" fill="#23500f" style="animation-play-state:paused" ></path>
<path d="M 511 -132 L 417 -165 L 410 -48 Z" stroke="#beca61" fill="#beca61" style="animation-play-state:paused" ></path>
<path d="M 621 -137 L 417 -165 L 511 -132 Z" stroke="#c1ca64" fill="#c1ca64" style="animation-play-state:paused" ></path>
<path d="M 912 764 L 916 659 L 811 669 Z" stroke="#224b0c" fill="#224b0c" style="animation-play-state:paused" ></path>
<path d="M 132 366 L 111 480 L 215 460 Z" stroke="#559535" fill="#559535" style="animation-play-state:paused" ></path>
<path d="M 25 452 L 111 480 L 132 366 Z" stroke="#5f9b38" fill="#5f9b38" style="animation-play-state:paused" ></path>
<path d="M 217 -156 L 222 -42 L 297 -65 Z" stroke="#cdcd71" fill="#cdcd71" style="animation-play-state:paused" ></path>
<path d="M 297 -65 L 222 -42 L 313 61 Z" stroke="#aec754" fill="#aec754" style="animation-play-state:paused" ></path>
<path d="M 331 757 L 406 743 L 307 652 Z" stroke="#247024" fill="#247024" style="animation-play-state:paused" ></path>
<path d="M 307 652 L 406 743 L 425 658 Z" stroke="#256f23" fill="#256f23" style="animation-play-state:paused" ></path>
<path d="M 525 746 L 406 743 L 627 772 Z" stroke="#25631b" fill="#25631b" style="animation-play-state:paused" ></path>
<path d="M 137 71 L 232 165 L 218 58 Z" stroke="#96bd49" fill="#96bd49" style="animation-play-state:paused" ></path>
<path d="M 29 551 L 108 547 L 111 480 Z" stroke="#539435" fill="#539435" style="animation-play-state:paused" ></path>
<path d="M 918 -160 L 800 -133 L 840 -32 Z" stroke="#91ba47" fill="#91ba47" style="animation-play-state:paused" ></path>
<path d="M 717 -134 L 800 -133 L 621 -137 Z" stroke="#a5c64e" fill="#a5c64e" style="animation-play-state:paused" ></path>
<path d="M 621 -137 L 1100 -152 L 417 -165 Z" stroke="#adc754" fill="#adc754" style="animation-play-state:paused" ></path>
<path d="M 222 -42 L 137 71 L 218 58 Z" stroke="#abc752" fill="#abc752" style="animation-play-state:paused" ></path>
<path d="M 1046 168 L 1039 75 L 919 155 Z" stroke="#38832e" fill="#38832e" style="animation-play-state:paused" ></path>
<path d="M 122 640 L 231 664 L 219 583 Z" stroke="#36822d" fill="#36822d" style="animation-play-state:paused" ></path>
<path d="M 219 583 L 231 664 L 307 652 Z" stroke="#2a7b2b" fill="#2a7b2b" style="animation-play-state:paused" ></path>
<path d="M 417 -165 L 324 -155 L 297 -65 Z" stroke="#cfcd72" fill="#cfcd72" style="animation-play-state:paused" ></path>
<path d="M 222 -42 L 113 -33 L 137 71 Z" stroke="#bcc960" fill="#bcc960" style="animation-play-state:paused" ></path>
<path d="M 916 659 L 1042 564 L 900 551 Z" stroke="#234c0d" fill="#234c0d" style="animation-play-state:paused" ></path>
<path d="M 1026 454 L 1110 366 L 1010 357 Z" stroke="#255b16" fill="#255b16" style="animation-play-state:paused" ></path>
<path d="M 1046 168 L 1102 135 L 1039 75 Z" stroke="#35812d" fill="#35812d" style="animation-play-state:paused" ></path>
<path d="M 19 343 L 132 366 L 124 257 Z" stroke="#72a73e" fill="#72a73e" style="animation-play-state:paused" ></path>
<path d="M 111 480 L 108 547 L 215 460 Z" stroke="#4d9033" fill="#4d9033" style="animation-play-state:paused" ></path>
<path d="M 231 664 L 331 757 L 307 652 Z" stroke="#237528" fill="#237528" style="animation-play-state:paused" ></path>
<path d="M 406 743 L 222 787 L 627 772 Z" stroke="#256a20" fill="#256a20" style="animation-play-state:paused" ></path>
<path d="M 1113 440 L 1110 366 L 1026 454 Z" stroke="#245613" fill="#245613" style="animation-play-state:paused" ></path>
<path d="M 1110 366 L 1112 257 L 1010 357 Z" stroke="#25621a" fill="#25621a" style="animation-play-state:paused" ></path>
<path d="M 721 746 L 821 769 L 811 669 Z" stroke="#23500f" fill="#23500f" style="animation-play-state:paused" ></path>
<path d="M 916 659 L 1012 663 L 1042 564 Z" stroke="#21470a" fill="#21470a" style="animation-play-state:paused" ></path>
<path d="M 627 772 L 821 769 L 721 746 Z" stroke="#245411" fill="#245411" style="animation-play-state:paused" ></path>
<path d="M 1112 257 L 1102 135 L 1046 168 Z" stroke="#247527" fill="#247527" style="animation-play-state:paused" ></path>
<path d="M 1039 75 L 1016 -44 L 907 54 Z" stroke="#5b9837" fill="#5b9837" style="animation-play-state:paused" ></path>
<path d="M 916 -32 L 918 -160 L 840 -32 Z" stroke="#83b243" fill="#83b243" style="animation-play-state:paused" ></path>
<path d="M 1110 -36 L 1016 -44 L 1039 75 Z" stroke="#609c38" fill="#609c38" style="animation-play-state:paused" ></path>
<path d="M 32 155 L 124 257 L 109 143 Z" stroke="#8fb947" fill="#8fb947" style="animation-play-state:paused" ></path>
<path d="M 32 155 L 18 262 L 124 257 Z" stroke="#8bb645" fill="#8bb645" style="animation-play-state:paused" ></path>
<path d="M 1042 564 L 1113 440 L 1026 454 Z" stroke="#23500f" fill="#23500f" style="animation-play-state:paused" ></path>
<path d="M 1110 366 L 1221 272 L 1112 257 Z" stroke="#25631b" fill="#25631b" style="animation-play-state:paused" ></path>
<path d="M 1016 -44 L 918 -160 L 916 -32 Z" stroke="#80b042" fill="#80b042" style="animation-play-state:paused" ></path>
<path d="M 800 -133 L 1100 -152 L 621 -137 Z" stroke="#9dc14b" fill="#9dc14b" style="animation-play-state:paused" ></path>
<path d="M 821 769 L 912 764 L 811 669 Z" stroke="#224c0c" fill="#224c0c" style="animation-play-state:paused" ></path>
<path d="M 1042 564 L 1136 557 L 1113 440 Z" stroke="#224a0c" fill="#224a0c" style="animation-play-state:paused" ></path>
<path d="M 11 -153 L 217 -156 L 324 -155 Z" stroke="#e7d492" fill="#e7d492" style="animation-play-state:paused" ></path>
<path d="M 324 -155 L 217 -156 L 297 -65 Z" stroke="#d5cf7a" fill="#d5cf7a" style="animation-play-state:paused" ></path>
<path d="M 6 33 L 32 155 L 109 143 Z" stroke="#a7c64f" fill="#a7c64f" style="animation-play-state:paused" ></path>
<path d="M 141 -120 L 113 -33 L 222 -42 Z" stroke="#d1ce75" fill="#d1ce75" style="animation-play-state:paused" ></path>
<path d="M 6 33 L 109 143 L 137 71 Z" stroke="#aac752" fill="#aac752" style="animation-play-state:paused" ></path>
<path d="M -83 271 L 19 343 L 18 262 Z" stroke="#87b444" fill="#87b444" style="animation-play-state:paused" ></path>
<path d="M 18 262 L 19 343 L 124 257 Z" stroke="#7eaf41" fill="#7eaf41" style="animation-play-state:paused" ></path>
<path d="M 912 764 L 1012 663 L 916 659 Z" stroke="#214609" fill="#214609" style="animation-play-state:paused" ></path>
<path d="M 108 547 L 122 640 L 219 583 Z" stroke="#418830" fill="#418830" style="animation-play-state:paused" ></path>
<path d="M 231 664 L 222 787 L 331 757 Z" stroke="#237628" fill="#237628" style="animation-play-state:paused" ></path>
<path d="M 29 551 L 122 640 L 108 547 Z" stroke="#4d8f33" fill="#4d8f33" style="animation-play-state:paused" ></path>
<path d="M 19 343 L 25 452 L 132 366 Z" stroke="#6ba33c" fill="#6ba33c" style="animation-play-state:paused" ></path>
<path d="M 133 773 L 222 787 L 231 664 Z" stroke="#2e7d2b" fill="#2e7d2b" style="animation-play-state:paused" ></path>
<path d="M 331 757 L 222 787 L 406 743 Z" stroke="#247125" fill="#247125" style="animation-play-state:paused" ></path>
<path d="M 627 772 L 222 787 L 821 769 Z" stroke="#256019" fill="#256019" style="animation-play-state:paused" ></path>
<path d="M 1218 159 L 1109 53 L 1102 135 Z" stroke="#33802d" fill="#33802d" style="animation-play-state:paused" ></path>
<path d="M 1102 135 L 1109 53 L 1039 75 Z" stroke="#418830" fill="#418830" style="animation-play-state:paused" ></path>
<path d="M 1218 159 L 1102 135 L 1112 257 Z" stroke="#247326" fill="#247326" style="animation-play-state:paused" ></path>
<path d="M 1012 663 L 1136 557 L 1042 564 Z" stroke="#214509" fill="#214509" style="animation-play-state:paused" ></path>
<path d="M 1244 379 L 1221 272 L 1110 366 Z" stroke="#255c17" fill="#255c17" style="animation-play-state:paused" ></path>
<path d="M 25 452 L 29 551 L 111 480 Z" stroke="#5c9937" fill="#5c9937" style="animation-play-state:paused" ></path>
<path d="M 217 -156 L 141 -120 L 222 -42 Z" stroke="#d9d07e" fill="#d9d07e" style="animation-play-state:paused" ></path>
<path d="M 113 -33 L 6 33 L 137 71 Z" stroke="#bfca62" fill="#bfca62" style="animation-play-state:paused" ></path>
<path d="M 1100 -152 L 1003 -157 L 1016 -44 Z" stroke="#88b544" fill="#88b544" style="animation-play-state:paused" ></path>
<path d="M 1016 -44 L 1003 -157 L 918 -160 Z" stroke="#8db746" fill="#8db746" style="animation-play-state:paused" ></path>
<path d="M 918 -160 L 1100 -152 L 800 -133 Z" stroke="#99bf4a" fill="#99bf4a" style="animation-play-state:paused" ></path>
<path d="M 1 -45 L 6 33 L 113 -33 Z" stroke="#d2ce76" fill="#d2ce76" style="animation-play-state:paused" ></path>
<path d="M 32 155 L -83 271 L 18 262 Z" stroke="#94bc48" fill="#94bc48" style="animation-play-state:paused" ></path>
<path d="M 1109 53 L 1110 -36 L 1039 75 Z" stroke="#549435" fill="#549435" style="animation-play-state:paused" ></path>
<path d="M -94 151 L -83 271 L 32 155 Z" stroke="#a1c44d" fill="#a1c44d" style="animation-play-state:paused" ></path>
<path d="M 19 343 L -57 385 L 25 452 Z" stroke="#74a83e" fill="#74a83e" style="animation-play-state:paused" ></path>
<path d="M 25 452 L -68 484 L 29 551 Z" stroke="#659f3a" fill="#659f3a" style="animation-play-state:paused" ></path>
<path d="M 11 738 L 133 773 L 122 640 Z" stroke="#428930" fill="#428930" style="animation-play-state:paused" ></path>
<path d="M 122 640 L 133 773 L 231 664 Z" stroke="#37822d" fill="#37822d" style="animation-play-state:paused" ></path>
<path d="M -83 271 L -57 385 L 19 343 Z" stroke="#84b243" fill="#84b243" style="animation-play-state:paused" ></path>
<path d="M 1244 379 L 1110 366 L 1113 440 Z" stroke="#245613" fill="#245613" style="animation-play-state:paused" ></path>
<path d="M 1109 53 L 1217 41 L 1110 -36 Z" stroke="#549435" fill="#549435" style="animation-play-state:paused" ></path>
<path d="M 912 764 L 1027 775 L 1012 663 Z" stroke="#204207" fill="#204207" style="animation-play-state:paused" ></path>
<path d="M 1012 663 L 1144 671 L 1136 557 Z" stroke="#19410a" fill="#19410a" style="animation-play-state:paused" ></path>
<path d="M 821 769 L 1027 775 L 912 764 Z" stroke="#214609" fill="#214609" style="animation-play-state:paused" ></path>
<path d="M 1221 272 L 1218 159 L 1112 257 Z" stroke="#256c21" fill="#256c21" style="animation-play-state:paused" ></path>
<path d="M 1243 487 L 1244 379 L 1113 440 Z" stroke="#23500f" fill="#23500f" style="animation-play-state:paused" ></path>
<path d="M 1243 487 L 1113 440 L 1136 557 Z" stroke="#224a0b" fill="#224a0b" style="animation-play-state:paused" ></path>
<path d="M 141 -120 L 1 -45 L 113 -33 Z" stroke="#dad080" fill="#dad080" style="animation-play-state:paused" ></path>
<path d="M -61 87 L -94 151 L 32 155 Z" stroke="#b2c857" fill="#b2c857" style="animation-play-state:paused" ></path>
<path d="M -57 385 L -68 484 L 25 452 Z" stroke="#71a63d" fill="#71a63d" style="animation-play-state:paused" ></path>
<path d="M 29 551 L 21 643 L 122 640 Z" stroke="#4f9134" fill="#4f9134" style="animation-play-state:paused" ></path>
<path d="M -63 580 L 21 643 L 29 551 Z" stroke="#5b9837" fill="#5b9837" style="animation-play-state:paused" ></path>
<path d="M 1132 754 L 1144 671 L 1012 663 Z" stroke="#003f14" fill="#003f14" style="animation-play-state:paused" ></path>
<path d="M -61 87 L 32 155 L 6 33 Z" stroke="#b8c95d" fill="#b8c95d" style="animation-play-state:paused" ></path>
<path d="M -83 271 L -189 370 L -57 385 Z" stroke="#8db846" fill="#8db846" style="animation-play-state:paused" ></path>
<path d="M -185 546 L -63 580 L -68 484 Z" stroke="#71a63d" fill="#71a63d" style="animation-play-state:paused" ></path>
<path d="M 1235 582 L 1243 487 L 1136 557 Z" stroke="#204308" fill="#204308" style="animation-play-state:paused" ></path>
<path d="M 1244 379 L 1313 365 L 1221 272 Z" stroke="#255a15" fill="#255a15" style="animation-play-state:paused" ></path>
<path d="M 1223 -53 L 1217 41 L 1323 -39 Z" stroke="#5b9837" fill="#5b9837" style="animation-play-state:paused" ></path>
<path d="M 1218 159 L 1217 41 L 1109 53 Z" stroke="#3c852f" fill="#3c852f" style="animation-play-state:paused" ></path>
<path d="M -69 -51 L -61 87 L 6 33 Z" stroke="#d2ce76" fill="#d2ce76" style="animation-play-state:paused" ></path>
<path d="M 1110 -36 L 1100 -152 L 1016 -44 Z" stroke="#78ab40" fill="#78ab40" style="animation-play-state:paused" ></path>
<path d="M 1003 -157 L 1100 -152 L 918 -160 Z" stroke="#97be49" fill="#97be49" style="animation-play-state:paused" ></path>
<path d="M 1234 -133 L 1100 -152 L 1110 -36 Z" stroke="#7faf41" fill="#7faf41" style="animation-play-state:paused" ></path>
<path d="M 1217 665 L 1235 582 L 1136 557 Z" stroke="#034012" fill="#034012" style="animation-play-state:paused" ></path>
<path d="M -68 484 L -63 580 L 29 551 Z" stroke="#659f3a" fill="#659f3a" style="animation-play-state:paused" ></path>
<path d="M 21 643 L 11 738 L 122 640 Z" stroke="#4b8e33" fill="#4b8e33" style="animation-play-state:paused" ></path>
<path d="M -176 462 L -68 484 L -57 385 Z" stroke="#7bad41" fill="#7bad41" style="animation-play-state:paused" ></path>
<path d="M 1027 775 L 1132 754 L 1012 663 Z" stroke="#034012" fill="#034012" style="animation-play-state:paused" ></path>
<path d="M 1144 671 L 1217 665 L 1136 557 Z" stroke="#003f14" fill="#003f14" style="animation-play-state:paused" ></path>
<path d="M 1324 69 L 1217 41 L 1218 159 Z" stroke="#36812d" fill="#36812d" style="animation-play-state:paused" ></path>
<path d="M 1217 41 L 1223 -53 L 1110 -36 Z" stroke="#5e9a38" fill="#5e9a38" style="animation-play-state:paused" ></path>
<path d="M 141 -120 L 11 -153 L 1 -45 Z" stroke="#e8d594" fill="#e8d594" style="animation-play-state:paused" ></path>
<path d="M 1 -45 L -69 -51 L 6 33 Z" stroke="#dbd081" fill="#dbd081" style="animation-play-state:paused" ></path>
<path d="M 217 -156 L 11 -153 L 141 -120 Z" stroke="#e9d697" fill="#e9d697" style="animation-play-state:paused" ></path>
<path d="M 417 -165 L 11 -153 L 324 -155 Z" stroke="#e1d28a" fill="#e1d28a" style="animation-play-state:paused" ></path>
<path d="M -73 662 L 11 738 L 21 643 Z" stroke="#569535" fill="#569535" style="animation-play-state:paused" ></path>
<path d="M 1313 476 L 1313 365 L 1244 379 Z" stroke="#23500f" fill="#23500f" style="animation-play-state:paused" ></path>
<path d="M 1221 272 L 1319 274 L 1218 159 Z" stroke="#25691f" fill="#25691f" style="animation-play-state:paused" ></path>
<path d="M 1313 476 L 1244 379 L 1243 487 Z" stroke="#224c0c" fill="#224c0c" style="animation-play-state:paused" ></path>
<path d="M -78 -112 L -69 -51 L 1 -45 Z" stroke="#e9d696" fill="#e9d696" style="animation-play-state:paused" ></path>
<path d="M -198 149 L -183 252 L -94 151 Z" stroke="#b9c95d" fill="#b9c95d" style="animation-play-state:paused" ></path>
<path d="M 1313 365 L 1319 274 L 1221 272 Z" stroke="#255e18" fill="#255e18" style="animation-play-state:paused" ></path>
<path d="M 1221 759 L 1217 665 L 1144 671 Z" stroke="#003a23" fill="#003a23" style="animation-play-state:paused" ></path>
<path d="M 1322 556 L 1313 476 L 1243 487 Z" stroke="#204408" fill="#204408" style="animation-play-state:paused" ></path>
<path d="M 1319 274 L 1325 162 L 1218 159 Z" stroke="#256d22" fill="#256d22" style="animation-play-state:paused" ></path>
<path d="M -63 580 L -73 662 L 21 643 Z" stroke="#5d9a38" fill="#5d9a38" style="animation-play-state:paused" ></path>
<path d="M -198 149 L -94 151 L -178 80 Z" stroke="#c8cc6b" fill="#c8cc6b" style="animation-play-state:paused" ></path>
<path d="M -94 151 L -183 252 L -83 271 Z" stroke="#a5c64e" fill="#a5c64e" style="animation-play-state:paused" ></path>
<path d="M -63 580 L -169 671 L -73 662 Z" stroke="#67a03a" fill="#67a03a" style="animation-play-state:paused" ></path>
<path d="M -183 252 L -189 370 L -83 271 Z" stroke="#9bc04b" fill="#9bc04b" style="animation-play-state:paused" ></path>
<path d="M 1322 556 L 1243 487 L 1235 582 Z" stroke="#18410b" fill="#18410b" style="animation-play-state:paused" ></path>
<path d="M 1429 365 L 1419 239 L 1319 274 Z" stroke="#255d17" fill="#255d17" style="animation-play-state:paused" ></path>
<path d="M 11 -153 L -78 -112 L 1 -45 Z" stroke="#edd89e" fill="#edd89e" style="animation-play-state:paused" ></path>
<path d="M -178 80 L -94 151 L -61 87 Z" stroke="#c6cb69" fill="#c6cb69" style="animation-play-state:paused" ></path>
<path d="M -178 80 L -61 87 L -69 -51 Z" stroke="#d7cf7c" fill="#d7cf7c" style="animation-play-state:paused" ></path>
<path d="M -284 453 L -176 462 L -189 370 Z" stroke="#90ba47" fill="#90ba47" style="animation-play-state:paused" ></path>
<path d="M 1409 171 L 1324 69 L 1325 162 Z" stroke="#237628" fill="#237628" style="animation-play-state:paused" ></path>
<path d="M 1325 162 L 1324 69 L 1218 159 Z" stroke="#247829" fill="#247829" style="animation-play-state:paused" ></path>
<path d="M 1223 -53 L 1234 -133 L 1110 -36 Z" stroke="#71a63d" fill="#71a63d" style="animation-play-state:paused" ></path>
<path d="M 1323 -39 L 1324 69 L 1423 71 Z" stroke="#458b31" fill="#458b31" style="animation-play-state:paused" ></path>
<path d="M 1323 -39 L 1234 -133 L 1223 -53 Z" stroke="#6fa53d" fill="#6fa53d" style="animation-play-state:paused" ></path>
<path d="M 1132 754 L 1221 759 L 1144 671 Z" stroke="#003a22" fill="#003a22" style="animation-play-state:paused" ></path>
<path d="M 1314 661 L 1322 556 L 1235 582 Z" stroke="#003c1c" fill="#003c1c" style="animation-play-state:paused" ></path>
<path d="M -303 365 L -189 370 L -183 252 Z" stroke="#a1c44d" fill="#a1c44d" style="animation-play-state:paused" ></path>
<path d="M -189 370 L -176 462 L -57 385 Z" stroke="#87b444" fill="#87b444" style="animation-play-state:paused" ></path>
<path d="M -185 -43 L -178 80 L -69 -51 Z" stroke="#e6d491" fill="#e6d491" style="animation-play-state:paused" ></path>
<path d="M 1314 661 L 1235 582 L 1217 665 Z" stroke="#003b20" fill="#003b20" style="animation-play-state:paused" ></path>
<path d="M -169 671 L -69 752 L -73 662 Z" stroke="#649e3a" fill="#649e3a" style="animation-play-state:paused" ></path>
<path d="M -73 662 L -69 752 L 11 738 Z" stroke="#599736" fill="#599736" style="animation-play-state:paused" ></path>
<path d="M 11 738 L -69 752 L 133 773 Z" stroke="#4c8f33" fill="#4c8f33" style="animation-play-state:paused" ></path>
<path d="M -284 453 L -185 546 L -176 462 Z" stroke="#89b545" fill="#89b545" style="animation-play-state:paused" ></path>
<path d="M -176 462 L -185 546 L -68 484 Z" stroke="#7bad40" fill="#7bad40" style="animation-play-state:paused" ></path>
<path d="M 1419 239 L 1325 162 L 1319 274 Z" stroke="#25681e" fill="#25681e" style="animation-play-state:paused" ></path>
<path d="M 1324 69 L 1323 -39 L 1217 41 Z" stroke="#4b8f33" fill="#4b8f33" style="animation-play-state:paused" ></path>
<path d="M 1410 458 L 1313 365 L 1313 476 Z" stroke="#224b0c" fill="#224b0c" style="animation-play-state:paused" ></path>
<path d="M 1429 365 L 1319 274 L 1313 365 Z" stroke="#255814" fill="#255814" style="animation-play-state:paused" ></path>
<path d="M 1221 759 L 1314 661 L 1217 665 Z" stroke="#003729" fill="#003729" style="animation-play-state:paused" ></path>
<path d="M 1410 458 L 1313 476 L 1408 549 Z" stroke="#204207" fill="#204207" style="animation-play-state:paused" ></path>
<path d="M -185 546 L -169 671 L -63 580 Z" stroke="#70a63d" fill="#70a63d" style="animation-play-state:paused" ></path>
<path d="M 1408 549 L 1313 476 L 1322 556 Z" stroke="#0f400f" fill="#0f400f" style="animation-play-state:paused" ></path>
<path d="M -169 -141 L -185 -43 L -69 -51 Z" stroke="#f3dba9" fill="#f3dba9" style="animation-play-state:paused" ></path>
<path d="M -292 172 L -283 258 L -198 149 Z" stroke="#c9cc6c" fill="#c9cc6c" style="animation-play-state:paused" ></path>
<path d="M -198 149 L -283 258 L -183 252 Z" stroke="#bcc960" fill="#bcc960" style="animation-play-state:paused" ></path>
<path d="M 1410 458 L 1429 365 L 1313 365 Z" stroke="#234f0e" fill="#234f0e" style="animation-play-state:paused" ></path>
<path d="M 1419 239 L 1409 171 L 1325 162 Z" stroke="#256c21" fill="#256c21" style="animation-play-state:paused" ></path>
<path d="M 1521 166 L 1409 171 L 1419 239 Z" stroke="#256b21" fill="#256b21" style="animation-play-state:paused" ></path>
<path d="M 1424 -138 L 1327 -145 L 1323 -39 Z" stroke="#76aa3f" fill="#76aa3f" style="animation-play-state:paused" ></path>
<path d="M 1323 -39 L 1327 -145 L 1234 -133 Z" stroke="#78ab3f" fill="#78ab3f" style="animation-play-state:paused" ></path>
<path d="M 1234 -133 L 1327 -145 L 1100 -152 Z" stroke="#88b544" fill="#88b544" style="animation-play-state:paused" ></path>
<path d="M -292 172 L -198 149 L -296 52 Z" stroke="#d9d07f" fill="#d9d07f" style="animation-play-state:paused" ></path>
<path d="M -185 546 L -258 679 L -169 671 Z" stroke="#79ab40" fill="#79ab40" style="animation-play-state:paused" ></path>
<path d="M -296 52 L -198 149 L -178 80 Z" stroke="#dbd081" fill="#dbd081" style="animation-play-state:paused" ></path>
<path d="M -296 52 L -303 365 L -283 258 Z" stroke="#c8cc6b" fill="#c8cc6b" style="animation-play-state:paused" ></path>
<path d="M -283 258 L -303 365 L -183 252 Z" stroke="#b1c856" fill="#b1c856" style="animation-play-state:paused" ></path>
<path d="M 1440 -18 L 1423 71 L 1507 55 Z" stroke="#418830" fill="#418830" style="animation-play-state:paused" ></path>
<path d="M 1409 171 L 1423 71 L 1324 69 Z" stroke="#2a7b2a" fill="#2a7b2a" style="animation-play-state:paused" ></path>
<path d="M -303 365 L -284 453 L -189 370 Z" stroke="#9cc14b" fill="#9cc14b" style="animation-play-state:paused" ></path>
<path d="M -78 -112 L -169 -141 L -69 -51 Z" stroke="#f3dbab" fill="#f3dbab" style="animation-play-state:paused" ></path>
<path d="M -281 -25 L -296 52 L -178 80 Z" stroke="#ead697" fill="#ead697" style="animation-play-state:paused" ></path>
<path d="M 11 -153 L -169 -141 L -78 -112 Z" stroke="#f7deb3" fill="#f7deb3" style="animation-play-state:paused" ></path>
<path d="M 1420 662 L 1408 549 L 1322 556 Z" stroke="#003a22" fill="#003a22" style="animation-play-state:paused" ></path>
<path d="M 1410 458 L 1516 453 L 1429 365 Z" stroke="#22490b" fill="#22490b" style="animation-play-state:paused" ></path>
<path d="M 1221 759 L 1346 784 L 1314 661 Z" stroke="#003132" fill="#003132" style="animation-play-state:paused" ></path>
<path d="M 1314 661 L 1420 662 L 1322 556 Z" stroke="#003728" fill="#003728" style="animation-play-state:paused" ></path>
<path d="M 1132 754 L 1346 784 L 1221 759 Z" stroke="#00342d" fill="#00342d" style="animation-play-state:paused" ></path>
<path d="M 1027 775 L 1346 784 L 1132 754 Z" stroke="#003825" fill="#003825" style="animation-play-state:paused" ></path>
<path d="M 821 769 L 1346 784 L 1027 775 Z" stroke="#003e16" fill="#003e16" style="animation-play-state:paused" ></path>
<path d="M 222 787 L 1346 784 L 821 769 Z" stroke="#234e0e" fill="#234e0e" style="animation-play-state:paused" ></path>
<path d="M -281 -25 L -178 80 L -185 -43 Z" stroke="#ebd79a" fill="#ebd79a" style="animation-play-state:paused" ></path>
<path d="M -292 172 L -296 52 L -283 258 Z" stroke="#d6cf7a" fill="#d6cf7a" style="animation-play-state:paused" ></path>
<path d="M -258 679 L -202 760 L -169 671 Z" stroke="#76a93f" fill="#76a93f" style="animation-play-state:paused" ></path>
<path d="M -169 671 L -202 760 L -69 752 Z" stroke="#6aa23b" fill="#6aa23b" style="animation-play-state:paused" ></path>
<path d="M -303 365 L -278 541 L -284 453 Z" stroke="#99bf4a" fill="#99bf4a" style="animation-play-state:paused" ></path>
<path d="M -284 453 L -278 541 L -185 546 Z" stroke="#8bb745" fill="#8bb745" style="animation-play-state:paused" ></path>
<path d="M -276 -127 L -281 -25 L -185 -43 Z" stroke="#f8dfb7" fill="#f8dfb7" style="animation-play-state:paused" ></path>
<path d="M 1428 760 L 1420 662 L 1314 661 Z" stroke="#002e36" fill="#002e36" style="animation-play-state:paused" ></path>
<path d="M 1507 55 L 1423 71 L 1409 171 Z" stroke="#2a7b2a" fill="#2a7b2a" style="animation-play-state:paused" ></path>
<path d="M 1423 71 L 1440 -18 L 1323 -39 Z" stroke="#4e9033" fill="#4e9033" style="animation-play-state:paused" ></path>
<path d="M 1520 269 L 1419 239 L 1429 365 Z" stroke="#255c17" fill="#255c17" style="animation-play-state:paused" ></path>
<path d="M -278 541 L -258 679 L -185 546 Z" stroke="#83b143" fill="#83b143" style="animation-play-state:paused" ></path>
<path d="M -169 -141 L -276 -127 L -185 -43 Z" stroke="#fae2be" fill="#fae2be" style="animation-play-state:paused" ></path>
<path d="M -281 -25 L -276 -127 L -296 52 Z" stroke="#f7deb3" fill="#f7deb3" style="animation-play-state:paused" ></path>
<path d="M 1505 555 L 1410 458 L 1408 549 Z" stroke="#003f14" fill="#003f14" style="animation-play-state:paused" ></path>
<path d="M 1505 555 L 1516 453 L 1410 458 Z" stroke="#17410b" fill="#17410b" style="animation-play-state:paused" ></path>
<path d="M 1516 453 L 1541 371 L 1429 365 Z" stroke="#234d0d" fill="#234d0d" style="animation-play-state:paused" ></path>
<path d="M 1521 -37 L 1424 -138 L 1440 -18 Z" stroke="#649e3a" fill="#649e3a" style="animation-play-state:paused" ></path>
<path d="M 1440 -18 L 1424 -138 L 1323 -39 Z" stroke="#66a03a" fill="#66a03a" style="animation-play-state:paused" ></path>
<path d="M 1327 -145 L 1514 -131 L 1100 -152 Z" stroke="#84b243" fill="#84b243" style="animation-play-state:paused" ></path>
<path d="M 1541 371 L 1520 269 L 1429 365 Z" stroke="#245512" fill="#245512" style="animation-play-state:paused" ></path>
<path d="M 1520 269 L 1521 166 L 1419 239 Z" stroke="#25661d" fill="#25661d" style="animation-play-state:paused" ></path>
<path d="M 1534 672 L 1505 555 L 1408 549 Z" stroke="#00362a" fill="#00362a" style="animation-play-state:paused" ></path>
<path d="M 1346 784 L 1428 760 L 1314 661 Z" stroke="#002d38" fill="#002d38" style="animation-play-state:paused" ></path>
<path d="M 1534 672 L 1408 549 L 1420 662 Z" stroke="#003330" fill="#003330" style="animation-play-state:paused" ></path>
<path d="M 1624 466 L 1608 359 L 1541 371 Z" stroke="#224b0c" fill="#224b0c" style="animation-play-state:paused" ></path>
<path d="M 1521 166 L 1507 55 L 1409 171 Z" stroke="#247427" fill="#247427" style="animation-play-state:paused" ></path>
<path d="M -278 541 L -276 784 L -258 679 Z" stroke="#82b143" fill="#82b143" style="animation-play-state:paused" ></path>
<path d="M -258 679 L -276 784 L -202 760 Z" stroke="#7bac40" fill="#7bac40" style="animation-play-state:paused" ></path>
<path d="M -202 760 L -276 784 L -69 752 Z" stroke="#6fa53d" fill="#6fa53d" style="animation-play-state:paused" ></path>
<path d="M -69 752 L -276 784 L 133 773 Z" stroke="#5c9937" fill="#5c9937" style="animation-play-state:paused" ></path>
<path d="M 133 773 L -276 784 L 222 787 Z" stroke="#4b8f33" fill="#4b8f33" style="animation-play-state:paused" ></path>
<path d="M 1617 57 L 1521 -37 L 1507 55 Z" stroke="#438930" fill="#438930" style="animation-play-state:paused" ></path>
<path d="M 1507 55 L 1521 -37 L 1440 -18 Z" stroke="#4d9033" fill="#4d9033" style="animation-play-state:paused" ></path>
<path d="M 1594 143 L 1507 55 L 1521 166 Z" stroke="#237528" fill="#237528" style="animation-play-state:paused" ></path>
<path d="M 1511 747 L 1534 672 L 1420 662 Z" stroke="#00293b" fill="#00293b" style="animation-play-state:paused" ></path>
<path d="M 1624 466 L 1541 371 L 1516 453 Z" stroke="#21470a" fill="#21470a" style="animation-play-state:paused" ></path>
<path d="M 1541 371 L 1608 359 L 1520 269 Z" stroke="#245512" fill="#245512" style="animation-play-state:paused" ></path>
<path d="M 1639 771 L 1511 747 L 1428 760 Z" stroke="#001f3c" fill="#001f3c" style="animation-play-state:paused" ></path>
<path d="M 1428 760 L 1511 747 L 1420 662 Z" stroke="#00273c" fill="#00273c" style="animation-play-state:paused" ></path>
<path d="M 1624 466 L 1516 453 L 1606 549 Z" stroke="#094010" fill="#094010" style="animation-play-state:paused" ></path>
<path d="M 1520 269 L 1628 261 L 1521 166 Z" stroke="#25641c" fill="#25641c" style="animation-play-state:paused" ></path>
<path d="M 1516 453 L 1505 555 L 1606 549 Z" stroke="#003e19" fill="#003e19" style="animation-play-state:paused" ></path>
<path d="M 1608 359 L 1628 261 L 1520 269 Z" stroke="#255a15" fill="#255a15" style="animation-play-state:paused" ></path>
<path d="M 1628 261 L 1594 143 L 1521 166 Z" stroke="#256a20" fill="#256a20" style="animation-play-state:paused" ></path>
<path d="M 1627 -121 L 1514 -131 L 1521 -37 Z" stroke="#6ea43c" fill="#6ea43c" style="animation-play-state:paused" ></path>
<path d="M 1521 -37 L 1514 -131 L 1424 -138 Z" stroke="#71a63d" fill="#71a63d" style="animation-play-state:paused" ></path>
<path d="M 1424 -138 L 1514 -131 L 1327 -145 Z" stroke="#7faf42" fill="#7faf42" style="animation-play-state:paused" ></path>
<path d="M 1606 549 L 1505 555 L 1534 672 Z" stroke="#00342d" fill="#00342d" style="animation-play-state:paused" ></path>
<path d="M 1608 359 L 1624 466 L 1628 261 Z" stroke="#23500f" fill="#23500f" style="animation-play-state:paused" ></path>
<path d="M 1594 143 L 1617 57 L 1507 55 Z" stroke="#2c7c2b" fill="#2c7c2b" style="animation-play-state:paused" ></path>
<path d="M 1628 261 L 1617 57 L 1594 143 Z" stroke="#246f24" fill="#246f24" style="animation-play-state:paused" ></path>
<path d="M 1622 -31 L 1617 57 L 1628 261 Z" stroke="#27792a" fill="#27792a" style="animation-play-state:paused" ></path>
<path d="M 1636 658 L 1606 549 L 1534 672 Z" stroke="#002f36" fill="#002f36" style="animation-play-state:paused" ></path>
<path d="M 1624 466 L 1622 -31 L 1628 261 Z" stroke="#25631b" fill="#25631b" style="animation-play-state:paused" ></path>
<path d="M 1617 57 L 1622 -31 L 1521 -37 Z" stroke="#4d9033" fill="#4d9033" style="animation-play-state:paused" ></path>
<path d="M 1606 549 L 1636 658 L 1624 466 Z" stroke="#003826" fill="#003826" style="animation-play-state:paused" ></path>
<path d="M 1624 466 L 1636 658 L 1622 -31 Z" stroke="#23500f" fill="#23500f" style="animation-play-state:paused" ></path>
<path d="M 1511 747 L 1636 658 L 1534 672 Z" stroke="#00253c" fill="#00253c" style="animation-play-state:paused" ></path>
<path d="M 1622 -31 L 1627 -121 L 1521 -37 Z" stroke="#629d39" fill="#629d39" style="animation-play-state:paused" ></path>
<path d="M 1346 784 L 1639 771 L 1428 760 Z" stroke="#00223c" fill="#00223c" style="animation-play-state:paused" ></path>
<path d="M 1511 747 L 1639 771 L 1636 658 Z" stroke="#001f3c" fill="#001f3c" style="animation-play-state:paused" ></path>
<path d="M 1636 658 L 1639 771 L 1622 -31 Z" stroke="#1c4209" fill="#1c4209" style="animation-play-state:paused" ></path></g>
<style type="text/css" style="animation-play-state:paused" >#bk-0.9760291236517593 path { stroke-width: 1 }</style></g></svg>