<?xml version="1.0" encoding="utf-8"?><svg xmlns="http://www.w3.org/2000/svg" xmlns:xlink="http://www.w3.org/1999/xlink" width="1468" height="1098" preserveAspectRatio="xMidYMid" viewBox="0 0 1468 1098" ne="0.4412223222113072" style="z-index:1;margin-right:-2px;display:block;background-repeat-y:initial;background-repeat-x:initial;background-color:rgb(31, 31, 31);animation-play-state:paused" ><g transform="translate(734,549) scale(1,1) translate(-734,-549)" style="transform:matrix(1, 0, 0, 1, 0, 0);animation-play-state:paused" ><linearGradient id="lg-0.23482133734691057" x1="0" x2="1" y1="0" y2="0" style="animation-play-state:paused" ><stop stop-color="#ff00ff" offset="0" style="animation-play-state:paused" ></stop>

  
<stop stop-color="#1b1932" offset="1" style="animation-play-state:paused" ></stop></linearGradient>
<path d="M 0 0 L 0 921.072 Q 146.8 855.364 293.6 814.49 T 587.2 544.596 T 880.8 369.361 T 1174.4 278.92 T 1468 -49.6149 L 1468 0 Z" fill="url(#lg-0.23482133734691057)" opacity="0.4" style="opacity:0.4;animation-play-state:paused" ></path>
<path d="M 0 0 L 0 897.035 Q 146.8 841.115 293.6 810.969 T 587.2 619.602 T 880.8 434.805 T 1174.4 262.957 T 1468 13.4461 L 1468 0 Z" fill="url(#lg-0.23482133734691057)" opacity="0.4" style="opacity:0.4;animation-play-state:paused" ></path>
<path d="M 0 0 L 0 1007.81 Q 146.8 761.035 293.6 722.448 T 587.2 557.44 T 880.8 408.571 T 1174.4 119.285 T 1468 63.7261 L 1468 0 Z" fill="url(#lg-0.23482133734691057)" opacity="0.4" style="opacity:0.4;animation-play-state:paused" ></path>
<path d="M 0 0 L 0 967.356 Q 146.8 788.951 293.6 761.871 T 587.2 520.538 T 880.8 412.624 T 1174.4 201 T 1468 27.1957 L 1468 0 Z" fill="url(#lg-0.23482133734691057)" opacity="0.4" style="opacity:0.4;animation-play-state:paused" ></path>
<path d="M 0 0 L 0 971.972 Q 146.8 920.214 293.6 901.994 T 587.2 615.236 T 880.8 532.166 T 1174.4 363.239 T 1468 66.8171 L 1468 0 Z" fill="url(#lg-0.23482133734691057)" opacity="0.4" style="opacity:0.4;animation-play-state:paused" ></path>
<path d="M 0 0 L 0 1005.25 Q 146.8 822.273 293.6 789.541 T 587.2 674.926 T 880.8 469.144 T 1174.4 252.65 T 1468 86.3794 L 1468 0 Z" fill="url(#lg-0.23482133734691057)" opacity="0.4" style="opacity:0.4;animation-play-state:paused" ></path></g></svg>