<?xml version="1.0" encoding="utf-8"?><svg xmlns="http://www.w3.org/2000/svg" xmlns:xlink="http://www.w3.org/1999/xlink" width="3000" height="1500" preserveAspectRatio="xMidYMid" viewBox="0 0 3000 1500" ne="0.23565425645908267" style="z-index:1;margin-right:-2px;display:block;background-repeat-y:initial;background-repeat-x:initial;background-color:rgb(31, 31, 31);animation-play-state:paused" ><g transform="translate(1500,750) scale(1,1) translate(-1500,-750)" style="transform:matrix(1, 0, 0, 1, 0, 0);animation-play-state:paused" ><linearGradient id="lg-0.24412535652262446" x1="0" x2="1" y1="0" y2="0" style="animation-play-state:paused" ><stop stop-color="#ff00ff" offset="0" style="animation-play-state:paused" ></stop>

  
<stop stop-color="#1b1932" offset="1" style="animation-play-state:paused" ></stop></linearGradient>
<path d="M 0 0 L 0 1212.95 Q 214.286 1170.56 428.571 1144.69 T 857.143 440.589 T 1285.71 68.6716 T 1714.29 180.925 T 2142.86 65.214 T 2571.43 -539.582 T 3000 -310.35 L 3000 0 Z" fill="url(#lg-0.24412535652262446)" opacity="0.4" style="opacity:0.4;animation-play-state:paused" ></path>
<path d="M 0 0 L 0 1170.52 Q 214.286 661.934 428.571 627.157 T 857.143 570.567 T 1285.71 532.379 T 1714.29 -55.1481 T 2142.86 -37.3952 T 2571.43 -30.7563 T 3000 -641.892 L 3000 0 Z" fill="url(#lg-0.24412535652262446)" opacity="0.4" style="opacity:0.4;animation-play-state:paused" ></path>
<path d="M 0 0 L 0 888.959 Q 214.286 694.593 428.571 670.072 T 857.143 724.056 T 1285.71 322.438 T 1714.29 141.775 T 2142.86 213.648 T 2571.43 -3.73809 T 3000 -234.276 L 3000 0 Z" fill="url(#lg-0.24412535652262446)" opacity="0.4" style="opacity:0.4;animation-play-state:paused" ></path>
<path d="M 0 0 L 0 1195.72 Q 214.286 656.121 428.571 621.816 T 857.143 699.196 T 1285.71 696.116 T 1714.29 119.361 T 2142.86 15.0768 T 2571.43 -311.854 T 3000 -832.56 L 3000 0 Z" fill="url(#lg-0.24412535652262446)" opacity="0.4" style="opacity:0.4;animation-play-state:paused" ></path>
<path d="M 0 0 L 0 1108.29 Q 214.286 1080 428.571 1052.77 T 857.143 657.751 T 1285.71 385.327 T 1714.29 285.369 T 2142.86 -339.396 T 2571.43 -335.108 T 3000 -405.535 L 3000 0 Z" fill="url(#lg-0.24412535652262446)" opacity="0.4" style="opacity:0.4;animation-play-state:paused" ></path>
<path d="M 0 0 L 0 901.271 Q 214.286 866.291 428.571 846.777 T 857.143 406.917 T 1285.71 613.625 T 1714.29 20.3108 T 2142.86 -235.062 T 2571.43 -510.568 T 3000 -795.053 L 3000 0 Z" fill="url(#lg-0.24412535652262446)" opacity="0.4" style="opacity:0.4;animation-play-state:paused" ></path>
<path d="M 0 0 L 0 920.772 Q 214.286 843.794 428.571 811.73 T 857.143 795.51 T 1285.71 434.379 T 1714.29 31.6831 T 2142.86 -134.065 T 2571.43 -167.219 T 3000 -543.112 L 3000 0 Z" fill="url(#lg-0.24412535652262446)" opacity="0.4" style="opacity:0.4;animation-play-state:paused" ></path>
<path d="M 0 0 L 0 993.219 Q 214.286 1125.64 428.571 1086.66 T 857.143 555.589 T 1285.71 467.208 T 1714.29 -40.6534 T 2142.86 -298.284 T 2571.43 -251.241 T 3000 -532.904 L 3000 0 Z" fill="url(#lg-0.24412535652262446)" opacity="0.4" style="opacity:0.4;animation-play-state:paused" ></path></g></svg>